<?xml version="1.0" encoding="utf-8" standalone="no"?>
<!DOCTYPE svg PUBLIC "-//W3C//DTD SVG 1.1//EN"
  "http://www.w3.org/Graphics/SVG/1.1/DTD/svg11.dtd">
<svg xmlns:xlink="http://www.w3.org/1999/xlink" width="687.24pt" height="347.164687pt" viewBox="0 0 687.24 347.164687" xmlns="http://www.w3.org/2000/svg" version="1.1">
 <metadata>
  <rdf:RDF xmlns:dc="http://purl.org/dc/elements/1.1/" xmlns:cc="http://creativecommons.org/ns#" xmlns:rdf="http://www.w3.org/1999/02/22-rdf-syntax-ns#">
   <cc:Work>
    <dc:type rdf:resource="http://purl.org/dc/dcmitype/StillImage"/>
    <dc:date>2026-09-22T22:37:28.474713</dc:date>
    <dc:format>image/svg+xml</dc:format>
    <dc:creator>
     <cc:Agent>
      <dc:title>Matplotlib v3.9.2, https://matplotlib.org/</dc:title>
     </cc:Agent>
    </dc:creator>
   </cc:Work>
  </rdf:RDF>
 </metadata>
 <defs>
  <style type="text/css">*{stroke-linejoin: round; stroke-linecap: butt}</style>
 </defs>
 <g id="figure_1">
  <g id="patch_1">
   <path d="M 0 347.164687 
L 687.24 347.164687 
L 687.24 0 
L 0 0 
z
" style="fill: #ffffff"/>
  </g>
  <g id="axes_1">
   <g id="patch_2">
    <path d="M 94.14 282.816 
L 454.958182 282.816 
L 454.958182 38.88 
L 94.14 38.88 
z
" style="fill: #ffffff"/>
   </g>
   <g id="matplotlib.axis_1">
    <g id="xtick_1">
     <g id="line2d_1">
      <defs>
       <path id="m0fc93599c2" d="M 0 0 
L 0 3.5 
" style="stroke: #c3c2b7; stroke-width: 0.8"/>
      </defs>
      <g>
       <use xlink:href="#m0fc93599c2" x="107.142457" y="282.816" style="fill: #c3c2b7; stroke: #c3c2b7; stroke-width: 0.8"/>
      </g>
     </g>
     <g id="text_1">
      <text style="fill: #52514e; font: 10px 'Segoe UI', 'DejaVu Sans'; text-anchor: middle" x="107.142457" y="297.219125" transform="rotate(-0 107.142457 297.219125)">1</text>
     </g>
    </g>
    <g id="xtick_2">
     <g id="line2d_2">
      <g>
       <use xlink:href="#m0fc93599c2" x="172.154742" y="282.816" style="fill: #c3c2b7; stroke: #c3c2b7; stroke-width: 0.8"/>
      </g>
     </g>
     <g id="text_2">
      <text style="fill: #52514e; font: 10px 'Segoe UI', 'DejaVu Sans'; text-anchor: middle" x="172.154742" y="297.219125" transform="rotate(-0 172.154742 297.219125)">2</text>
     </g>
    </g>
    <g id="xtick_3">
     <g id="line2d_3">
      <g>
       <use xlink:href="#m0fc93599c2" x="237.167027" y="282.816" style="fill: #c3c2b7; stroke: #c3c2b7; stroke-width: 0.8"/>
      </g>
     </g>
     <g id="text_3">
      <text style="fill: #52514e; font: 10px 'Segoe UI', 'DejaVu Sans'; text-anchor: middle" x="237.167027" y="297.219125" transform="rotate(-0 237.167027 297.219125)">3</text>
     </g>
    </g>
    <g id="xtick_4">
     <g id="line2d_4">
      <g>
       <use xlink:href="#m0fc93599c2" x="302.179312" y="282.816" style="fill: #c3c2b7; stroke: #c3c2b7; stroke-width: 0.8"/>
      </g>
     </g>
     <g id="text_4">
      <text style="fill: #52514e; font: 10px 'Segoe UI', 'DejaVu Sans'; text-anchor: middle" x="302.179312" y="297.219125" transform="rotate(-0 302.179312 297.219125)">4</text>
     </g>
    </g>
    <g id="xtick_5">
     <g id="line2d_5">
      <g>
       <use xlink:href="#m0fc93599c2" x="367.191597" y="282.816" style="fill: #c3c2b7; stroke: #c3c2b7; stroke-width: 0.8"/>
      </g>
     </g>
     <g id="text_5">
      <text style="fill: #52514e; font: 10px 'Segoe UI', 'DejaVu Sans'; text-anchor: middle" x="367.191597" y="297.219125" transform="rotate(-0 367.191597 297.219125)">5</text>
     </g>
    </g>
    <g id="text_6">
     <text style="fill: #52514e; font: 10px 'Segoe UI', 'DejaVu Sans'; text-anchor: middle" x="274.549091" y="311.0285" transform="rotate(-0 274.549091 311.0285)">fold temporal (TimeSeriesSplit, passado → futuro)</text>
    </g>
   </g>
   <g id="matplotlib.axis_2">
    <g id="ytick_1">
     <g id="line2d_6">
      <path d="M 94.14 252.801027 
L 454.958182 252.801027 
" clip-path="url(#p1dd29ce142)" style="fill: none; stroke: #e1e0d9; stroke-width: 0.6; stroke-linecap: square"/>
     </g>
     <g id="line2d_7">
      <defs>
       <path id="me09fcdbda0" d="M 0 0 
L -3.5 0 
" style="stroke: #c3c2b7; stroke-width: 0.8"/>
      </defs>
      <g>
       <use xlink:href="#me09fcdbda0" x="94.14" y="252.801027" style="fill: #c3c2b7; stroke: #c3c2b7; stroke-width: 0.8"/>
      </g>
     </g>
     <g id="text_7">
      <text style="fill: #52514e; font: 10px 'Segoe UI', 'DejaVu Sans'; text-anchor: end" x="87.14" y="256.502589" transform="rotate(-0 87.14 256.502589)">35</text>
     </g>
    </g>
    <g id="ytick_2">
     <g id="line2d_8">
      <path d="M 94.14 212.759119 
L 454.958182 212.759119 
" clip-path="url(#p1dd29ce142)" style="fill: none; stroke: #e1e0d9; stroke-width: 0.6; stroke-linecap: square"/>
     </g>
     <g id="line2d_9">
      <g>
       <use xlink:href="#me09fcdbda0" x="94.14" y="212.759119" style="fill: #c3c2b7; stroke: #c3c2b7; stroke-width: 0.8"/>
      </g>
     </g>
     <g id="text_8">
      <text style="fill: #52514e; font: 10px 'Segoe UI', 'DejaVu Sans'; text-anchor: end" x="87.14" y="216.460681" transform="rotate(-0 87.14 216.460681)">40</text>
     </g>
    </g>
    <g id="ytick_3">
     <g id="line2d_10">
      <path d="M 94.14 172.717211 
L 454.958182 172.717211 
" clip-path="url(#p1dd29ce142)" style="fill: none; stroke: #e1e0d9; stroke-width: 0.6; stroke-linecap: square"/>
     </g>
     <g id="line2d_11">
      <g>
       <use xlink:href="#me09fcdbda0" x="94.14" y="172.717211" style="fill: #c3c2b7; stroke: #c3c2b7; stroke-width: 0.8"/>
      </g>
     </g>
     <g id="text_9">
      <text style="fill: #52514e; font: 10px 'Segoe UI', 'DejaVu Sans'; text-anchor: end" x="87.14" y="176.418773" transform="rotate(-0 87.14 176.418773)">45</text>
     </g>
    </g>
    <g id="ytick_4">
     <g id="line2d_12">
      <path d="M 94.14 132.675303 
L 454.958182 132.675303 
" clip-path="url(#p1dd29ce142)" style="fill: none; stroke: #e1e0d9; stroke-width: 0.6; stroke-linecap: square"/>
     </g>
     <g id="line2d_13">
      <g>
       <use xlink:href="#me09fcdbda0" x="94.14" y="132.675303" style="fill: #c3c2b7; stroke: #c3c2b7; stroke-width: 0.8"/>
      </g>
     </g>
     <g id="text_10">
      <text style="fill: #52514e; font: 10px 'Segoe UI', 'DejaVu Sans'; text-anchor: end" x="87.14" y="136.376865" transform="rotate(-0 87.14 136.376865)">50</text>
     </g>
    </g>
    <g id="ytick_5">
     <g id="line2d_14">
      <path d="M 94.14 92.633395 
L 454.958182 92.633395 
" clip-path="url(#p1dd29ce142)" style="fill: none; stroke: #e1e0d9; stroke-width: 0.6; stroke-linecap: square"/>
     </g>
     <g id="line2d_15">
      <g>
       <use xlink:href="#me09fcdbda0" x="94.14" y="92.633395" style="fill: #c3c2b7; stroke: #c3c2b7; stroke-width: 0.8"/>
      </g>
     </g>
     <g id="text_11">
      <text style="fill: #52514e; font: 10px 'Segoe UI', 'DejaVu Sans'; text-anchor: end" x="87.14" y="96.334957" transform="rotate(-0 87.14 96.334957)">55</text>
     </g>
    </g>
    <g id="ytick_6">
     <g id="line2d_16">
      <path d="M 94.14 52.591487 
L 454.958182 52.591487 
" clip-path="url(#p1dd29ce142)" style="fill: none; stroke: #e1e0d9; stroke-width: 0.6; stroke-linecap: square"/>
     </g>
     <g id="line2d_17">
      <g>
       <use xlink:href="#me09fcdbda0" x="94.14" y="52.591487" style="fill: #c3c2b7; stroke: #c3c2b7; stroke-width: 0.8"/>
      </g>
     </g>
     <g id="text_12">
      <text style="fill: #52514e; font: 10px 'Segoe UI', 'DejaVu Sans'; text-anchor: end" x="87.14" y="56.293049" transform="rotate(-0 87.14 56.293049)">60</text>
     </g>
    </g>
    <g id="text_13">
     <text style="fill: #52514e; font: 10px 'Segoe UI', 'DejaVu Sans'; text-anchor: middle" x="70.05875" y="160.848" transform="rotate(-90 70.05875 160.848)">RMSE (s)</text>
    </g>
   </g>
   <g id="line2d_18">
    <path d="M 107.142457 123.309086 
L 172.154742 205.490482 
L 237.167027 205.274935 
L 302.179312 231.226501 
L 367.191597 256.913285 
" clip-path="url(#p1dd29ce142)" style="fill: none; stroke: #2a78d6; stroke-width: 2; stroke-linecap: square"/>
    <defs>
     <path id="m5300cbbb3c" d="M 0 3 
C 0.795609 3 1.55874 2.683901 2.12132 2.12132 
C 2.683901 1.55874 3 0.795609 3 0 
C 3 -0.795609 2.683901 -1.55874 2.12132 -2.12132 
C 1.55874 -2.683901 0.795609 -3 0 -3 
C -0.795609 -3 -1.55874 -2.683901 -2.12132 -2.12132 
C -2.683901 -1.55874 -3 -0.795609 -3 0 
C -3 0.795609 -2.683901 1.55874 -2.12132 2.12132 
C -1.55874 2.683901 -0.795609 3 0 3 
z
" style="stroke: #ffffff; stroke-width: 1.2"/>
    </defs>
    <g clip-path="url(#p1dd29ce142)">
     <use xlink:href="#m5300cbbb3c" x="107.142457" y="123.309086" style="fill: #2a78d6; stroke: #ffffff; stroke-width: 1.2"/>
     <use xlink:href="#m5300cbbb3c" x="172.154742" y="205.490482" style="fill: #2a78d6; stroke: #ffffff; stroke-width: 1.2"/>
     <use xlink:href="#m5300cbbb3c" x="237.167027" y="205.274935" style="fill: #2a78d6; stroke: #ffffff; stroke-width: 1.2"/>
     <use xlink:href="#m5300cbbb3c" x="302.179312" y="231.226501" style="fill: #2a78d6; stroke: #ffffff; stroke-width: 1.2"/>
     <use xlink:href="#m5300cbbb3c" x="367.191597" y="256.913285" style="fill: #2a78d6; stroke: #ffffff; stroke-width: 1.2"/>
    </g>
   </g>
   <g id="line2d_19">
    <path d="M 107.142457 49.968 
L 172.154742 84.697212 
L 237.167027 105.037089 
L 302.179312 176.625477 
L 367.191597 191.732365 
" clip-path="url(#p1dd29ce142)" style="fill: none; stroke: #eb6834; stroke-width: 2; stroke-linecap: square"/>
    <defs>
     <path id="mba4087f482" d="M 0 3 
C 0.795609 3 1.55874 2.683901 2.12132 2.12132 
C 2.683901 1.55874 3 0.795609 3 0 
C 3 -0.795609 2.683901 -1.55874 2.12132 -2.12132 
C 1.55874 -2.683901 0.795609 -3 0 -3 
C -0.795609 -3 -1.55874 -2.683901 -2.12132 -2.12132 
C -2.683901 -1.55874 -3 -0.795609 -3 0 
C -3 0.795609 -2.683901 1.55874 -2.12132 2.12132 
C -1.55874 2.683901 -0.795609 3 0 3 
z
" style="stroke: #ffffff; stroke-width: 1.2"/>
    </defs>
    <g clip-path="url(#p1dd29ce142)">
     <use xlink:href="#mba4087f482" x="107.142457" y="49.968" style="fill: #eb6834; stroke: #ffffff; stroke-width: 1.2"/>
     <use xlink:href="#mba4087f482" x="172.154742" y="84.697212" style="fill: #eb6834; stroke: #ffffff; stroke-width: 1.2"/>
     <use xlink:href="#mba4087f482" x="237.167027" y="105.037089" style="fill: #eb6834; stroke: #ffffff; stroke-width: 1.2"/>
     <use xlink:href="#mba4087f482" x="302.179312" y="176.625477" style="fill: #eb6834; stroke: #ffffff; stroke-width: 1.2"/>
     <use xlink:href="#mba4087f482" x="367.191597" y="191.732365" style="fill: #eb6834; stroke: #ffffff; stroke-width: 1.2"/>
    </g>
   </g>
   <g id="line2d_20">
    <path d="M 107.142457 110.94322 
L 172.154742 179.368097 
L 237.167027 215.379082 
L 302.179312 226.464833 
L 367.191597 271.728 
" clip-path="url(#p1dd29ce142)" style="fill: none; stroke: #1baf7a; stroke-width: 2; stroke-linecap: square"/>
    <defs>
     <path id="m9f2740e642" d="M 0 3 
C 0.795609 3 1.55874 2.683901 2.12132 2.12132 
C 2.683901 1.55874 3 0.795609 3 0 
C 3 -0.795609 2.683901 -1.55874 2.12132 -2.12132 
C 1.55874 -2.683901 0.795609 -3 0 -3 
C -0.795609 -3 -1.55874 -2.683901 -2.12132 -2.12132 
C -2.683901 -1.55874 -3 -0.795609 -3 0 
C -3 0.795609 -2.683901 1.55874 -2.12132 2.12132 
C -1.55874 2.683901 -0.795609 3 0 3 
z
" style="stroke: #ffffff; stroke-width: 1.2"/>
    </defs>
    <g clip-path="url(#p1dd29ce142)">
     <use xlink:href="#m9f2740e642" x="107.142457" y="110.94322" style="fill: #1baf7a; stroke: #ffffff; stroke-width: 1.2"/>
     <use xlink:href="#m9f2740e642" x="172.154742" y="179.368097" style="fill: #1baf7a; stroke: #ffffff; stroke-width: 1.2"/>
     <use xlink:href="#m9f2740e642" x="237.167027" y="215.379082" style="fill: #1baf7a; stroke: #ffffff; stroke-width: 1.2"/>
     <use xlink:href="#m9f2740e642" x="302.179312" y="226.464833" style="fill: #1baf7a; stroke: #ffffff; stroke-width: 1.2"/>
     <use xlink:href="#m9f2740e642" x="367.191597" y="271.728" style="fill: #1baf7a; stroke: #ffffff; stroke-width: 1.2"/>
    </g>
   </g>
   <g id="patch_3">
    <path d="M 94.14 282.816 
L 94.14 38.88 
" style="fill: none; stroke: #c3c2b7; stroke-width: 0.8; stroke-linejoin: miter; stroke-linecap: square"/>
   </g>
   <g id="patch_4">
    <path d="M 94.14 282.816 
L 454.958182 282.816 
" style="fill: none; stroke: #c3c2b7; stroke-width: 0.8; stroke-linejoin: miter; stroke-linecap: square"/>
   </g>
   <g id="text_14">
    <text style="fill: #0b0b0b; font: 8.5px 'Segoe UI', 'DejaVu Sans'; text-anchor: start" x="374.993071" y="253.075036" transform="rotate(-0 374.993071 253.075036)">XGBoost + recência</text>
   </g>
   <g id="text_15">
    <text style="fill: #0b0b0b; font: 8.5px 'Segoe UI', 'DejaVu Sans'; text-anchor: start" x="374.993071" y="193.901193" transform="rotate(-0 374.993071 193.901193)">XGBoost sem recência</text>
   </g>
   <g id="text_16">
    <text style="fill: #0b0b0b; font: 8.5px 'Segoe UI', 'DejaVu Sans'; text-anchor: start" x="374.993071" y="273.896828" transform="rotate(-0 374.993071 273.896828)">LSTM</text>
   </g>
   <g id="text_17">
    <text style="fill: #0b0b0b; font: 10.5px 'Segoe UI', 'DejaVu Sans'; text-anchor: start" x="94.14" y="32.88" transform="rotate(-0 94.14 32.88)">RMSE por fold</text>
   </g>
   <g id="legend_1">
    <g id="line2d_21">
     <path d="M 260.105682 49.2025 
L 268.105682 49.2025 
L 276.105682 49.2025 
" style="fill: none; stroke: #2a78d6; stroke-width: 2; stroke-linecap: square"/>
     <g>
      <use xlink:href="#m5300cbbb3c" x="268.105682" y="49.2025" style="fill: #2a78d6; stroke: #ffffff; stroke-width: 1.2"/>
     </g>
    </g>
    <g id="text_18">
     <text style="font: 8px 'Segoe UI', 'DejaVu Sans'; text-anchor: start" x="282.505682" y="52.0025" transform="rotate(-0 282.505682 52.0025)">XGBoost + recência (LIA 2.1) — média 41,0 s</text>
    </g>
    <g id="line2d_22">
     <path d="M 260.105682 60.965 
L 268.105682 60.965 
L 276.105682 60.965 
" style="fill: none; stroke: #eb6834; stroke-width: 2; stroke-linecap: square"/>
     <g>
      <use xlink:href="#mba4087f482" x="268.105682" y="60.965" style="fill: #eb6834; stroke: #ffffff; stroke-width: 1.2"/>
     </g>
    </g>
    <g id="text_19">
     <text style="font: 8px 'Segoe UI', 'DejaVu Sans'; text-anchor: start" x="282.505682" y="63.765" transform="rotate(-0 282.505682 63.765)">XGBoost sem recência (LIA 2.0) — média 51,4 s</text>
    </g>
    <g id="line2d_23">
     <path d="M 260.105682 72.7275 
L 268.105682 72.7275 
L 276.105682 72.7275 
" style="fill: none; stroke: #1baf7a; stroke-width: 2; stroke-linecap: square"/>
     <g>
      <use xlink:href="#m9f2740e642" x="268.105682" y="72.7275" style="fill: #1baf7a; stroke: #ffffff; stroke-width: 1.2"/>
     </g>
    </g>
    <g id="text_20">
     <text style="font: 8px 'Segoe UI', 'DejaVu Sans'; text-anchor: start" x="282.505682" y="75.5275" transform="rotate(-0 282.505682 75.5275)">LSTM — média 41,5 s</text>
    </g>
   </g>
  </g>
  <g id="axes_2">
   <g id="patch_5">
    <path d="M 508.221818 282.816 
L 680.04 282.816 
L 680.04 38.88 
L 508.221818 38.88 
z
" style="fill: #ffffff"/>
   </g>
   <g id="matplotlib.axis_3">
    <g id="xtick_6">
     <g id="line2d_24">
      <path d="M 508.221818 282.816 
L 508.221818 38.88 
" clip-path="url(#pd21cb13626)" style="fill: none; stroke: #e1e0d9; stroke-width: 0.6; stroke-linecap: square"/>
     </g>
     <g id="line2d_25">
      <g>
       <use xlink:href="#m0fc93599c2" x="508.221818" y="282.816" style="fill: #c3c2b7; stroke: #c3c2b7; stroke-width: 0.8"/>
      </g>
     </g>
     <g id="text_21">
      <text style="fill: #52514e; font: 10px 'Segoe UI', 'DejaVu Sans'; text-anchor: middle" x="508.221818" y="297.219125" transform="rotate(-0 508.221818 297.219125)">0</text>
     </g>
    </g>
    <g id="xtick_7">
     <g id="line2d_26">
      <path d="M 555.867894 282.816 
L 555.867894 38.88 
" clip-path="url(#pd21cb13626)" style="fill: none; stroke: #e1e0d9; stroke-width: 0.6; stroke-linecap: square"/>
     </g>
     <g id="line2d_27">
      <g>
       <use xlink:href="#m0fc93599c2" x="555.867894" y="282.816" style="fill: #c3c2b7; stroke: #c3c2b7; stroke-width: 0.8"/>
      </g>
     </g>
     <g id="text_22">
      <text style="fill: #52514e; font: 10px 'Segoe UI', 'DejaVu Sans'; text-anchor: middle" x="555.867894" y="297.219125" transform="rotate(-0 555.867894 297.219125)">5</text>
     </g>
    </g>
    <g id="xtick_8">
     <g id="line2d_28">
      <path d="M 603.513969 282.816 
L 603.513969 38.88 
" clip-path="url(#pd21cb13626)" style="fill: none; stroke: #e1e0d9; stroke-width: 0.6; stroke-linecap: square"/>
     </g>
     <g id="line2d_29">
      <g>
       <use xlink:href="#m0fc93599c2" x="603.513969" y="282.816" style="fill: #c3c2b7; stroke: #c3c2b7; stroke-width: 0.8"/>
      </g>
     </g>
     <g id="text_23">
      <text style="fill: #52514e; font: 10px 'Segoe UI', 'DejaVu Sans'; text-anchor: middle" x="603.513969" y="297.219125" transform="rotate(-0 603.513969 297.219125)">10</text>
     </g>
    </g>
    <g id="xtick_9">
     <g id="line2d_30">
      <path d="M 651.160045 282.816 
L 651.160045 38.88 
" clip-path="url(#pd21cb13626)" style="fill: none; stroke: #e1e0d9; stroke-width: 0.6; stroke-linecap: square"/>
     </g>
     <g id="line2d_31">
      <g>
       <use xlink:href="#m0fc93599c2" x="651.160045" y="282.816" style="fill: #c3c2b7; stroke: #c3c2b7; stroke-width: 0.8"/>
      </g>
     </g>
     <g id="text_24">
      <text style="fill: #52514e; font: 10px 'Segoe UI', 'DejaVu Sans'; text-anchor: middle" x="651.160045" y="297.219125" transform="rotate(-0 651.160045 297.219125)">15</text>
     </g>
    </g>
   </g>
   <g id="matplotlib.axis_4"/>
   <g id="patch_6">
    <path d="M 508.221818 87.6672 
L 534.593111 87.6672 
L 534.593111 117.363757 
L 508.221818 117.363757 
z
" clip-path="url(#pd21cb13626)" style="fill: #2a78d6; stroke: #ffffff; stroke-width: 1.5; stroke-linejoin: miter"/>
   </g>
   <g id="patch_7">
    <path d="M 508.221818 158.373287 
L 546.685932 158.373287 
L 546.685932 188.069843 
L 508.221818 188.069843 
z
" clip-path="url(#pd21cb13626)" style="fill: #eb6834; stroke: #ffffff; stroke-width: 1.5; stroke-linejoin: miter"/>
   </g>
   <g id="patch_8">
    <path d="M 508.221818 229.079374 
L 597.433062 229.079374 
L 597.433062 258.77593 
L 508.221818 258.77593 
z
" clip-path="url(#pd21cb13626)" style="fill: #1baf7a; stroke: #ffffff; stroke-width: 1.5; stroke-linejoin: miter"/>
   </g>
   <g id="LineCollection_1">
    <path d="M 528.772668 102.515478 
L 540.413555 102.515478 
" clip-path="url(#pd21cb13626)" style="fill: none; stroke: #52514e; stroke-width: 0.9"/>
   </g>
   <g id="line2d_32">
    <defs>
     <path id="md186def934" d="M 0 3 
L 0 -3 
" style="stroke: #52514e"/>
    </defs>
    <g clip-path="url(#pd21cb13626)">
     <use xlink:href="#md186def934" x="528.772668" y="102.515478" style="fill: #52514e; stroke: #52514e"/>
    </g>
   </g>
   <g id="line2d_33">
    <g clip-path="url(#pd21cb13626)">
     <use xlink:href="#md186def934" x="540.413555" y="102.515478" style="fill: #52514e; stroke: #52514e"/>
    </g>
   </g>
   <g id="LineCollection_2">
    <path d="M 521.378686 173.221565 
L 571.993179 173.221565 
" clip-path="url(#pd21cb13626)" style="fill: none; stroke: #52514e; stroke-width: 0.9"/>
   </g>
   <g id="line2d_34">
    <g clip-path="url(#pd21cb13626)">
     <use xlink:href="#md186def934" x="521.378686" y="173.221565" style="fill: #52514e; stroke: #52514e"/>
    </g>
   </g>
   <g id="line2d_35">
    <g clip-path="url(#pd21cb13626)">
     <use xlink:href="#md186def934" x="571.993179" y="173.221565" style="fill: #52514e; stroke: #52514e"/>
    </g>
   </g>
   <g id="LineCollection_3">
    <path d="M 554.476473 243.927652 
L 640.38965 243.927652 
" clip-path="url(#pd21cb13626)" style="fill: none; stroke: #52514e; stroke-width: 0.9"/>
   </g>
   <g id="line2d_36">
    <g clip-path="url(#pd21cb13626)">
     <use xlink:href="#md186def934" x="554.476473" y="243.927652" style="fill: #52514e; stroke: #52514e"/>
    </g>
   </g>
   <g id="line2d_37">
    <g clip-path="url(#pd21cb13626)">
     <use xlink:href="#md186def934" x="640.38965" y="243.927652" style="fill: #52514e; stroke: #52514e"/>
    </g>
   </g>
   <g id="patch_9">
    <path d="M 508.221818 282.816 
L 508.221818 38.88 
" style="fill: none; stroke: #c3c2b7; stroke-width: 0.8; stroke-linejoin: miter; stroke-linecap: square"/>
   </g>
   <g id="patch_10">
    <path d="M 508.221818 282.816 
L 680.04 282.816 
" style="fill: none; stroke: #c3c2b7; stroke-width: 0.8; stroke-linejoin: miter; stroke-linecap: square"/>
   </g>
   <g id="text_25">
    <text style="fill: #0b0b0b; font: 8.5px 'Segoe UI', 'DejaVu Sans'; text-anchor: start" x="543.27232" y="104.684306" transform="rotate(-0 543.27232 104.684306)">2,8 s</text>
   </g>
   <g id="text_26">
    <text style="fill: #52514e; font: 8.5px 'Segoe UI', 'DejaVu Sans'; text-anchor: start" x="508.221818" y="79.348652" transform="rotate(-0 508.221818 79.348652)">XGBoost + recência</text>
   </g>
   <g id="text_27">
    <text style="fill: #0b0b0b; font: 8.5px 'Segoe UI', 'DejaVu Sans'; text-anchor: start" x="574.851944" y="175.390393" transform="rotate(-0 574.851944 175.390393)">4,0 s</text>
   </g>
   <g id="text_28">
    <text style="fill: #52514e; font: 8.5px 'Segoe UI', 'DejaVu Sans'; text-anchor: start" x="508.221818" y="150.054739" transform="rotate(-0 508.221818 150.054739)">XGBoost sem recência</text>
   </g>
   <g id="text_29">
    <text style="fill: #0b0b0b; font: 8.5px 'Segoe UI', 'DejaVu Sans'; text-anchor: start" x="643.248415" y="246.09648" transform="rotate(-0 643.248415 246.09648)">9,4 s</text>
   </g>
   <g id="text_30">
    <text style="fill: #52514e; font: 8.5px 'Segoe UI', 'DejaVu Sans'; text-anchor: start" x="508.221818" y="220.760826" transform="rotate(-0 508.221818 220.760826)">LSTM</text>
   </g>
   <g id="text_31">
    <text style="fill: #0b0b0b; font: 10.5px 'Segoe UI', 'DejaVu Sans'; text-anchor: start" x="508.221818" y="32.88" transform="rotate(-0 508.221818 32.88)">tempo de treino por fold (s)</text>
   </g>
  </g>
  <g id="text_32">
   <text style="fill: #0b0b0b; font: 12px 'Segoe UI', 'DejaVu Sans'; text-anchor: start" x="7.2" y="16.08375" transform="rotate(-0 7.2 16.08375)">Benchmark LSTM × XGBoost (alvo: razão de congestionamento)</text>
  </g>
  <g id="text_33">
   <text style="fill: #898781; font: 7.5px 'Segoe UI', 'DejaVu Sans'" transform="translate(7.2 329.676562)">Mesmos cortes temporais para os três modelos; erro convertido para segundos pelo comprimento real do trecho. Tempos medidos na mesma máquina.</text>
   <text style="fill: #898781; font: 7.5px 'Segoe UI', 'DejaVu Sans'" transform="translate(7.2 338.199844)">Fonte: ml/artifacts/benchmark_lstm_vs_xgboost.json.</text>
  </g>
 </g>
 <defs>
  <clipPath id="p1dd29ce142">
   <rect x="94.14" y="38.88" width="360.818182" height="243.936"/>
  </clipPath>
  <clipPath id="pd21cb13626">
   <rect x="508.221818" y="38.88" width="171.818182" height="243.936"/>
  </clipPath>
 </defs>
</svg>
